<?xml version="1.0" standalone="no"?>
<!DOCTYPE svg PUBLIC "-//W3C//DTD SVG 20010904//EN"
 "http://www.w3.org/TR/2001/REC-SVG-20010904/DTD/svg10.dtd">
<svg version="1.0" xmlns="http://www.w3.org/2000/svg"
 width="380.000000pt" height="277.000000pt" viewBox="0 0 380.000000 277.000000"
 preserveAspectRatio="xMidYMid meet">

<g transform="translate(0.000000,277.000000) scale(0.100000,-0.100000)"
fill="#000000" stroke="none">
<path d="M5 2757 c-3 -6 -4 -179 -3 -382 3 -362 3 -370 23 -370 20 0 20 8 23
357 l2 358 358 2 357 3 3 23 3 22 -381 0 c-296 0 -382 -3 -385 -13z"/>
<path d="M3032 2748 l3 -23 357 -3 358 -2 2 -358 c3 -349 3 -357 23 -357 20 0
20 7 20 380 l0 380 -383 3 -383 2 3 -22z"/>
<path d="M1870 2250 l0 -130 -25 0 c-46 0 -171 -30 -236 -56 -136 -55 -283
-181 -357 -306 -43 -73 -79 -176 -94 -272 l-12 -76 -123 0 -123 0 0 -30 0 -30
123 0 123 0 17 -90 c31 -167 99 -292 216 -403 120 -113 285 -193 423 -204 l68
-6 0 -133 0 -134 30 0 30 0 0 134 0 133 63 5 c143 12 310 95 425 210 115 115
198 282 210 426 l5 62 133 0 134 0 0 30 0 30 -134 0 -133 0 -6 68 c-3 37 -19
105 -36 151 -92 251 -303 427 -573 479 l-88 16 0 128 0 128 -30 0 -30 0 0
-130z m0 -325 l0 -125 30 0 30 0 0 126 0 126 48 -6 c306 -43 545 -282 588
-588 l6 -48 -126 0 -126 0 0 -30 0 -30 125 0 c123 0 125 0 125 -22 -1 -59 -34
-172 -76 -258 -98 -197 -291 -334 -516 -366 l-48 -6 0 131 0 131 -30 0 -30 0
0 -130 c0 -128 0 -130 -22 -130 -59 1 -172 34 -258 76 -201 100 -331 286 -365
527 l-7 47 136 0 136 0 0 30 0 30 -136 0 -136 0 6 48 c32 225 169 418 366 516
89 44 189 73 253 75 l27 1 0 -125z"/>
<path d="M7 754 c-4 -4 -7 -175 -7 -381 l0 -373 386 0 c362 0 385 1 382 18 -3
16 -29 17 -361 20 l-357 2 -2 357 c-3 314 -5 358 -18 361 -9 1 -19 0 -23 -4z"/>
<path d="M3757 754 c-4 -4 -7 -166 -7 -361 l0 -353 -357 -2 c-332 -3 -358 -4
-361 -20 -3 -17 20 -18 382 -18 l386 0 -2 377 c-3 332 -5 378 -18 381 -9 1
-19 0 -23 -4z"/>
</g>
</svg>
